pose18
version=1
nRows=4
nColumns=213
inDegrees=yes
endheader
time	platform_rx	platform_ry	platform_rz	platform_ty	pelvis_tilt	pelvis_list	pelvis_rotation	pelvis_tx	pelvis_ty	pelvis_tz	hip_flexion_r	hip_adduction_r	hip_rotation_r	knee_angle_r	knee_angle_r_beta	ankle_angle_r	subtalar_angle_r	mtp_angle_r	hip_flexion_l	hip_adduction_l	hip_rotation_l	knee_angle_l	knee_angle_l_beta	ankle_angle_l	subtalar_angle_l	mtp_angle_l	lumbar_extension	lumbar_bending	lumbar_rotation	arm_flex_r	arm_add_r	arm_rot_r	elbow_flex_r	pro_sup_r	wrist_flex_r	wrist_dev_r	arm_flex_l	arm_add_l	arm_rot_l	elbow_flex_l	pro_sup_l	wrist_flex_l	wrist_dev_l	platform_rx_u	platform_ry_u	platform_rz_u	platform_ty_u	pelvis_tilt_u	pelvis_list_u	pelvis_rotation_u	pelvis_tx_u	pelvis_ty_u	pelvis_tz_u	hip_flexion_r_u	hip_adduction_r_u	hip_rotation_r_u	knee_angle_r_u	knee_angle_r_beta_u	ankle_angle_r_u	subtalar_angle_r_u	mtp_angle_r_u	hip_flexion_l_u	hip_adduction_l_u	hip_rotation_l_u	knee_angle_l_u	knee_angle_l_beta_u	ankle_angle_l_u	subtalar_angle_l_u	mtp_angle_l_u	lumbar_extension_u	lumbar_bending_u	lumbar_rotation_u	arm_flex_r_u	arm_add_r_u	arm_rot_r_u	elbow_flex_r_u	pro_sup_r_u	wrist_flex_r_u	wrist_dev_r_u	arm_flex_l_u	arm_add_l_u	arm_rot_l_u	elbow_flex_l_u	pro_sup_l_u	wrist_flex_l_u	wrist_dev_l_u	addbrev_r.activation	addlong_r.activation	addlong_r.fiber_length	addmagDist_r.activation	addmagIsch_r.activation	addmagIsch_r.fiber_length	addmagMid_r.activation	addmagProx_r.activation	bflh_r.activation	bflh_r.fiber_length	bfsh_r.activation	edl_r.activation	edl_r.fiber_length	ehl_r.activation	ehl_r.fiber_length	fdl_r.activation	fdl_r.fiber_length	fhl_r.activation	fhl_r.fiber_length	gaslat_r.activation	gaslat_r.fiber_length	gasmed_r.activation	gasmed_r.fiber_length	glmax1_r.activation	glmax2_r.activation	glmax3_r.activation	glmed1_r.activation	glmed2_r.activation	glmed3_r.activation	glmin1_r.activation	glmin2_r.activation	glmin3_r.activation	glmin3_r.fiber_length	grac_r.activation	iliacus_r.activation	perbrev_r.activation	perbrev_r.fiber_length	perlong_r.activation	perlong_r.fiber_length	piri_r.activation	piri_r.fiber_length	psoas_r.activation	recfem_r.activation	recfem_r.fiber_length	sart_r.activation	semimem_r.activation	semimem_r.fiber_length	semiten_r.activation	semiten_r.fiber_length	soleus_r.activation	soleus_r.fiber_length	tfl_r.activation	tfl_r.fiber_length	tibant_r.activation	tibant_r.fiber_length	tibpost_r.activation	tibpost_r.fiber_length	vasint_r.activation	vasint_r.fiber_length	vaslat_r.activation	vaslat_r.fiber_length	vasmed_r.activation	vasmed_r.fiber_length	addbrev_l.activation	addlong_l.activation	addlong_l.fiber_length	addmagDist_l.activation	addmagIsch_l.activation	addmagIsch_l.fiber_length	addmagMid_l.activation	addmagProx_l.activation	bflh_l.activation	bflh_l.fiber_length	bfsh_l.activation	edl_l.activation	edl_l.fiber_length	ehl_l.activation	ehl_l.fiber_length	fdl_l.activation	fdl_l.fiber_length	fhl_l.activation	fhl_l.fiber_length	gaslat_l.activation	gaslat_l.fiber_length	gasmed_l.activation	gasmed_l.fiber_length	glmax1_l.activation	glmax2_l.activation	glmax3_l.activation	glmed1_l.activation	glmed2_l.activation	glmed3_l.activation	glmin1_l.activation	glmin2_l.activation	glmin3_l.activation	glmin3_l.fiber_length	grac_l.activation	iliacus_l.activation	perbrev_l.activation	perbrev_l.fiber_length	perlong_l.activation	perlong_l.fiber_length	piri_l.activation	piri_l.fiber_length	psoas_l.activation	recfem_l.activation	recfem_l.fiber_length	sart_l.activation	semimem_l.activation	semimem_l.fiber_length	semiten_l.activation	semiten_l.fiber_length	soleus_l.activation	soleus_l.fiber_length	tfl_l.activation	tfl_l.fiber_length	tibant_l.activation	tibant_l.fiber_length	tibpost_l.activation	tibpost_l.fiber_length	vasint_l.activation	vasint_l.fiber_length	vaslat_l.activation	vaslat_l.fiber_length	vasmed_l.activation	vasmed_l.fiber_length
      0.01468255	     20.00000000	      0.00000000	      0.00000000	      0.25000000	    -23.61245583	     -0.00712298	     -0.00979313	     -0.03536256	      0.62152235	      0.00003387	     89.63951542	    -18.23520424	     -3.46485505	     92.45029987	     92.45029987	     12.14429575	     -1.97460124	     -0.00000000	     89.64588466	    -18.27876012	     -3.35266184	     92.45543662	     92.45543662	     12.54775429	     -0.00000000	     -0.00000000	     -3.83434081	      0.00572409	      0.01013474	     90.80453676	     -0.03590826	     89.84109293	      0.24243397	      0.12841837	     -0.00000000	     -0.00000000	     90.80677419	     -0.03702053	     89.81104474	      0.24450125	      0.15156638	     -0.00000000	     -0.00000000	      0.00000000	      0.00000000	     -0.00000000	      0.00000000	    415.67600039	     -0.65311174	     -0.76974851	      0.08307324	      0.62897537	      0.00309176	   -470.88119928	    -23.13381529	     14.72157204	   -104.40365453	   -104.40365453	  -1825.28333014	   -192.16395345	     -0.00000000	   -470.16027273	    -27.22493167	     24.86622620	   -104.39152646	   -104.39152646	  -1790.38192384	     -0.00000000	      0.00000000	   -518.41715247	      0.41756224	      0.85518879	    110.21921891	     -4.94998863	     -0.00000000	     13.83853450	     -1.32489260	     -0.00000000	     -0.00000000	    110.30890130	     -5.08746608	     -3.16339605	     14.10846809	      1.97357413	     -0.00000000	     -0.00000000	      0.01000000	      0.01000000	      0.09859101	      0.01000000	      0.01000000	      0.21629987	      0.01000000	      0.01000000	      0.01000000	      0.12167822	      0.01000000	      0.01000000	      0.06054032	      0.01000000	      0.06946557	      0.01000000	      0.04725123	      0.01000000	      0.05473577	      0.01000000	      0.05180904	      0.01000000	      0.04057575	      0.01000000	      0.01000000	      0.01000000	      0.01000000	      0.01000000	      0.01000000	      0.01000000	      0.01000000	      0.01000000	      0.04469530	      0.01000000	      0.01000000	      0.01000000	      0.04893141	      0.01000000	      0.05530493	      0.01000000	      0.03205348	      0.01000000	      0.01000000	      0.05420244	      0.01000000	      0.01000000	      0.07835218	      0.01000000	      0.22970409	      0.01000000	      0.05515152	      0.01000000	      0.02401563	      0.01000000	      0.05697165	      0.01000000	      0.04131958	      0.01000000	      0.13524210	      0.01000000	      0.13172056	      0.01000000	      0.12949334	      0.01000000	      0.01000000	      0.09864100	      0.01000000	      0.01000000	      0.21632826	      0.01000000	      0.01000000	      0.01000000	      0.12168289	      0.01000000	      0.01000000	      0.06075943	      0.01000000	      0.06924625	      0.01000000	      0.04694586	      0.01000000	      0.05450268	      0.01000000	      0.05181128	      0.01000000	      0.04058012	      0.01000000	      0.01000000	      0.01000000	      0.01000000	      0.01000000	      0.01000000	      0.01000000	      0.01000000	      0.01000000	      0.04461916	      0.01000000	      0.01000000	      0.01000000	      0.04977925	      0.01000000	      0.05601244	      0.01000000	      0.03200966	      0.01000000	      0.01000000	      0.05419722	      0.01000000	      0.01000000	      0.07835222	      0.01000000	      0.22970981	      0.01000000	      0.05521967	      0.01000000	      0.02401563	      0.01000000	      0.05641762	      0.01000000	      0.04097991	      0.01000000	      0.13524362	      0.01000000	      0.13172203	      0.01000000	      0.12949463
      0.01509274	     20.00000000	      0.00000000	      0.00000000	      0.25000000	    -23.43958223	     -0.00738857	     -0.01010259	     -0.03532808	      0.62178428	      0.00003512	     89.44333521	    -18.24481604	     -3.45890841	     92.40636180	     92.40636180	     11.39214489	     -2.05284145	     -0.00000000	     89.45000102	    -18.29003853	     -3.34260606	     92.41148937	     92.41148937	     11.80967659	     -0.00000000	     -0.00000000	     -4.04991131	      0.00589141	      0.01048021	     90.85036550	     -0.03796909	     89.84109293	      0.24819519	      0.12788068	     -0.00000000	     -0.00000000	     90.85263994	     -0.03913815	     89.80972456	      0.25037443	      0.15240445	     -0.00000000	     -0.00000000	      0.00000000	      0.00000000	     -0.00000000	      0.00000000	    427.20676251	     -0.64180204	     -0.73908495	      0.08507060	      0.64818258	      0.00303354	   -485.65886108	    -23.72887662	     14.26388831	   -109.84166630	   -109.84166630	  -1841.61090602	   -189.21126762	     -0.00000000	   -484.93358791	    -27.76352396	     24.14816383	   -109.89879491	   -109.89879491	  -1807.92214409	     -0.00000000	      0.00000000	   -532.64115922	      0.39834263	      0.82923438	    113.22786596	     -5.09820151	     -0.00000000	     14.25200871	     -1.29571169	     -0.00000000	     -0.00000000	    113.31858437	     -5.23757015	     -3.27378163	     14.52782480	      2.11387990	     -0.00000000	     -0.00000000	      0.01000000	      0.01000000	      0.09856381	      0.01000000	      0.01000000	      0.21618899	      0.01000000	      0.01000000	      0.01000000	      0.12159433	      0.01000000	      0.01000000	      0.06098341	      0.01000000	      0.06997424	      0.01000000	      0.04721890	      0.01000000	      0.05464508	      0.01000000	      0.05173513	      0.01000000	      0.04051387	      0.01000000	      0.01000000	      0.01000000	      0.01000000	      0.01000000	      0.01000000	      0.01000000	      0.01000000	      0.01000000	      0.04465748	      0.01000000	      0.01000000	      0.01000000	      0.04883964	      0.01000000	      0.05519053	      0.01000000	      0.03201297	      0.01000000	      0.01000000	      0.05430510	      0.01000000	      0.01000000	      0.07827879	      0.01000000	      0.22959566	      0.01000000	      0.05481787	      0.01000000	      0.02401563	      0.01000000	      0.05753845	      0.01000000	      0.04126933	      0.01000000	      0.13522960	      0.01000000	      0.13170864	      0.01000000	      0.12948282	      0.01000000	      0.01000000	      0.09861591	      0.01000000	      0.01000000	      0.21619312	      0.01000000	      0.01000000	      0.01000000	      0.12159935	      0.01000000	      0.01000000	      0.06121374	      0.01000000	      0.06974323	      0.01000000	      0.04689520	      0.01000000	      0.05440626	      0.01000000	      0.05173736	      0.01000000	      0.04051824	      0.01000000	      0.01000000	      0.01000000	      0.01000000	      0.01000000	      0.01000000	      0.01000000	      0.01000000	      0.01000000	      0.04457835	      0.01000000	      0.01000000	      0.01000000	      0.04972205	      0.01000000	      0.05592936	      0.01000000	      0.03196735	      0.01000000	      0.01000000	      0.05429953	      0.01000000	      0.01000000	      0.07827897	      0.01000000	      0.22960182	      0.01000000	      0.05488994	      0.01000000	      0.02401563	      0.01000000	      0.05696187	      0.01000000	      0.04091065	      0.01000000	      0.13523113	      0.01000000	      0.13171011	      0.01000000	      0.12948412
      0.01550294	     20.00000000	      0.00000000	      0.00000000	      0.25000000	    -23.26197835	     -0.00764892	     -0.01039860	     -0.03529277	      0.62205413	      0.00003635	     89.24106761	    -18.25467124	     -3.45315973	     92.36017439	     92.36017439	     10.63375798	     -2.12974555	     -0.00000000	     89.24803111	    -18.30153432	     -3.33286330	     92.36526331	     92.36526331	     11.06483360	     -0.00000000	     -0.00000000	     -4.27131390	      0.00605034	      0.01081413	     90.89742737	     -0.04009089	     89.84109293	      0.25412654	      0.12735613	     -0.00000000	     -0.00000000	     90.89973925	     -0.04131754	     89.80835873	      0.25642016	      0.15330164	     -0.00000000	     -0.00000000	      0.00000000	      0.00000000	     -0.00000000	      0.00000000	    438.73883288	     -0.62705301	     -0.70339841	      0.08704642	      0.66751962	      0.00296268	   -500.56029025	    -24.32183813	     13.75685775	   -115.36915532	   -115.36915532	  -1855.69458422	   -185.64995544	     -0.00000000	   -499.83479159	    -28.28358564	     23.33978524	   -115.50140315	   -115.50140315	  -1823.37258832	     -0.00000000	      0.00000000	   -546.85181045	      0.37603454	      0.79799551	    116.23141567	     -5.24722251	     -0.00000000	     14.66794080	     -1.26089046	     -0.00000000	     -0.00000000	    116.32326813	     -5.38865373	     -3.38589263	     14.94988852	      2.26181707	     -0.00000000	     -0.00000000	      0.01000000	      0.01000000	      0.09853621	      0.01000000	      0.01000000	      0.21604261	      0.01000000	      0.01000000	      0.01000000	      0.12150772	      0.01000000	      0.01000000	      0.06143112	      0.01000000	      0.07048772	      0.01000000	      0.04718461	      0.01000000	      0.05455325	      0.01000000	      0.05166125	      0.01000000	      0.04045202	      0.01000000	      0.01000000	      0.01000000	      0.01000000	      0.01000000	      0.01000000	      0.01000000	      0.01000000	      0.01000000	      0.04461856	      0.01000000	      0.01000000	      0.01000000	      0.04874726	      0.01000000	      0.05507494	      0.01000000	      0.03197114	      0.01000000	      0.01000000	      0.05441110	      0.01000000	      0.01000000	      0.07820310	      0.01000000	      0.22948399	      0.01000000	      0.05447490	      0.01000000	      0.02401563	      0.01000000	      0.05811019	      0.01000000	      0.04121712	      0.01000000	      0.13521642	      0.01000000	      0.13169607	      0.01000000	      0.12947173	      0.01000000	      0.01000000	      0.09859038	      0.01000000	      0.01000000	      0.21606203	      0.01000000	      0.01000000	      0.01000000	      0.12151312	      0.01000000	      0.01000000	      0.06167279	      0.01000000	      0.07024508	      0.01000000	      0.04684261	      0.01000000	      0.05431079	      0.01000000	      0.05166348	      0.01000000	      0.04045639	      0.01000000	      0.01000000	      0.01000000	      0.01000000	      0.01000000	      0.01000000	      0.01000000	      0.01000000	      0.01000000	      0.04453651	      0.01000000	      0.01000000	      0.01000000	      0.04966346	      0.01000000	      0.05584454	      0.01000000	      0.03192374	      0.01000000	      0.01000000	      0.05440517	      0.01000000	      0.01000000	      0.07820344	      0.01000000	      0.22949063	      0.01000000	      0.05455098	      0.01000000	      0.02401563	      0.01000000	      0.05751149	      0.01000000	      0.04083933	      0.01000000	      0.13521796	      0.01000000	      0.13169754	      0.01000000	      0.12947302
      0.01605245	     20.00000000	      0.00000000	     -0.00000000	      0.25000000	    -23.01664161	     -0.00798753	     -0.01077126	     -0.03524422	      0.62242810	      0.00003795	     88.96047605	    -18.26825220	     -3.44580408	     92.29471439	     92.29471439	      9.60962224	     -2.23024053	     -0.00000000	     88.96783780	    -18.31726289	     -3.32036590	     92.29970192	     92.29970192	     10.05790235	     -0.00000000	     -0.00000000	     -4.57704051	      0.00624839	      0.01124036	     90.96240152	     -0.04302950	     89.84109293	      0.26234080	      0.12667822	     -0.00000000	     -0.00000000	     90.96476424	     -0.04433456	     89.80645618	      0.26479154	      0.15460172	     -0.00000000	     -0.00000000	      0.00000000	      0.00000000	     -0.00000000	      0.00000000	    454.19291239	     -0.60600385	     -0.65396846	      0.08965737	      0.69363615	      0.00285981	   -520.72315272	    -25.10282584	     12.99953732	   -122.90393513	   -122.90393513	  -1871.11007510	   -179.93390456	     -0.00000000	   -519.99792425	    -28.96056393	     22.12099401	   -123.14005770	   -123.14005770	  -1840.86096157	     -0.00000000	      0.00000000	   -565.87116785	      0.34563472	      0.75440766	    120.24805518	     -5.44865289	     -0.00000000	     15.22981543	     -1.20437969	     -0.00000000	     -0.00000000	    120.34101942	     -5.59228666	     -3.53944771	     15.51939300	      2.47236233	     -0.00000000	     -0.00000000	      0.01000000	      0.01000000	      0.09849863	      0.01000000	      0.01000000	      0.21587464	      0.01000000	      0.01000000	      0.01000000	      0.12138737	      0.01000000	      0.01000000	      0.06203714	      0.01000000	      0.07118208	      0.01000000	      0.04713559	      0.01000000	      0.05442927	      0.01000000	      0.05156233	      0.01000000	      0.04036922	      0.01000000	      0.01000000	      0.01000000	      0.01000000	      0.01000000	      0.01000000	      0.01000000	      0.01000000	      0.01000000	      0.04456467	      0.01000000	      0.01000000	      0.01000000	      0.04862285	      0.01000000	      0.05491860	      0.01000000	      0.03191302	      0.01000000	      0.01000000	      0.05455841	      0.01000000	      0.01000000	      0.07809806	      0.01000000	      0.22932929	      0.01000000	      0.05400078	      0.01000000	      0.02401563	      0.01000000	      0.05888241	      0.01000000	      0.04114409	      0.01000000	      0.13519768	      0.01000000	      0.13167819	      0.01000000	      0.12945595	      0.01000000	      0.01000000	      0.09855553	      0.01000000	      0.01000000	      0.21586677	      0.01000000	      0.01000000	      0.01000000	      0.12139329	      0.01000000	      0.01000000	      0.06229408	      0.01000000	      0.07092397	      0.01000000	      0.04676926	      0.01000000	      0.05418586	      0.01000000	      0.05156456	      0.01000000	      0.04037358	      0.01000000	      0.01000000	      0.01000000	      0.01000000	      0.01000000	      0.01000000	      0.01000000	      0.01000000	      0.01000000	      0.04447883	      0.01000000	      0.01000000	      0.01000000	      0.04958291	      0.01000000	      0.05572833	      0.01000000	      0.03186330	      0.01000000	      0.01000000	      0.05455198	      0.01000000	      0.01000000	      0.07809864	      0.01000000	      0.22933659	      0.01000000	      0.05408234	      0.01000000	      0.02401563	      0.01000000	      0.05825493	      0.01000000	      0.04074068	      0.01000000	      0.13519920	      0.01000000	      0.13167966	      0.01000000	      0.12945723
